<svg id="img_404" xmlns="http://www.w3.org/2000/svg" xmlns:xlink="http://www.w3.org/1999/xlink" width="634.619" height="585.441" viewBox="0 0 634.619 585.441">
  <defs>
    <clipPath id="clip-path">
      <rect id="Rectangle_8624" data-name="Rectangle 8624" width="634.619" height="585.441" fill="none"/>
    </clipPath>
    <clipPath id="clip-path-3">
      <rect id="Rectangle_8622" data-name="Rectangle 8622" width="627.697" height="570.717" fill="none"/>
    </clipPath>
  </defs>
  <g id="Group_22666" data-name="Group 22666" clip-path="url(#clip-path)">
    <g id="Group_22665" data-name="Group 22665">
      <g id="Group_22664" data-name="Group 22664" clip-path="url(#clip-path)">
        <path id="Path_24602" data-name="Path 24602" d="M613.054,349.16c-17.917,54.3-56.515,113.819-113.316,133.193-85.828,29.281-93.5,99.671-249.262,99.19a314.021,314.021,0,0,1-67.629-7.262,261.3,261.3,0,0,1-32.024-9.3C58.548,531.7,8.025,452.539.816,367.949c-9.5-111.253,66.211-167.383,115.55-200.443S221.96,11.563,375.094,10.833a304.317,304.317,0,0,1,69.514,7.425c52,11.938,105.5,40.722,137.635,84.579q3.622,4.944,6.945,10.12c43.346,67.446,48.294,162.17,23.866,236.2" transform="translate(0 3.896)" fill="#0fc1a7"/>
        <g id="Group_22663" data-name="Group 22663" transform="translate(0 14.724)" opacity="0.7">
          <g id="Group_22662" data-name="Group 22662">
            <g id="Group_22661" data-name="Group 22661" clip-path="url(#clip-path-3)">
              <path id="Path_24603" data-name="Path 24603" d="M613.054,349.16c-17.917,54.3-56.515,113.819-113.316,133.193-85.828,29.281-93.5,99.671-249.262,99.19a314.021,314.021,0,0,1-67.629-7.262,261.3,261.3,0,0,1-32.024-9.3C58.548,531.7,8.025,452.539.816,367.949c-9.5-111.253,66.211-167.383,115.55-200.443S221.96,11.563,375.094,10.833a304.317,304.317,0,0,1,69.514,7.425c52,11.938,105.5,40.722,137.635,84.579q3.622,4.944,6.945,10.12c43.346,67.446,48.294,162.17,23.866,236.2" transform="translate(0 -10.829)" fill="#fff"/>
            </g>
          </g>
        </g>
        <line id="Line_79" data-name="Line 79" x1="627.837" transform="translate(6.103 561.343)" fill="none" stroke="#3d3d3d" stroke-linecap="round" stroke-linejoin="round" stroke-width="1"/>
        <path id="Path_24604" data-name="Path 24604" d="M23.341,352.764c2.929,1.278,10.089,1.118,10.094,1.118.073,0-1.539-4.688-1.675-4.972-1.57-3.286-6.54-8.713-10.583-8.168a4.829,4.829,0,0,0-3.875,6.051c.672,2.8,3.545,4.881,6.038,5.972" transform="translate(6.172 122.555)" fill="#3d3d3d"/>
        <path id="Path_24605" data-name="Path 24605" d="M25.653,379c3.038.443,9.428-1.41,9.935-1.56a85.455,85.455,0,0,0,3.877,10.724c.878,2.035,1.827,4.059,2.805,6.074-.583-.854-1.111-1.613-1.2-1.712-2.384-2.755-8.61-6.676-12.364-5.081a4.826,4.826,0,0,0-2.139,6.858c1.386,2.524,4.709,3.772,7.4,4.165,2.733.4,8.213-1.073,9.658-1.482.383.771.756,1.543,1.142,2.31,1.852,3.685,3.713,7.355,5.431,11.01.605,1.288,1.154,2.577,1.709,3.867-.519-.759-.963-1.392-1.04-1.482-2.384-2.755-8.608-6.677-12.364-5.083a4.828,4.828,0,0,0-2.139,6.858c1.388,2.525,4.707,3.773,7.4,4.165,2.608.381,7.678-.931,9.4-1.409.528,1.337,1.059,2.675,1.509,3.995.288.908.628,1.762.866,2.689q.383,1.373.757,2.715c.417,1.743.861,3.539,1.225,5.25.262,1.187.492,2.324.726,3.469-.589-1.288-1.792-3.787-1.917-3.985-1.938-3.084-7.5-7.9-11.451-6.9a4.827,4.827,0,0,0-3.152,6.456c.989,2.7,4.082,4.442,6.683,5.238,2.865.876,9.208.075,10-.03.381,1.9.733,3.742,1.036,5.491.163.925.3,1.795.449,2.669h2.522c-.186-1.008-.381-2.037-.594-3.114-.378-1.925-.821-3.976-1.3-6.078a52.4,52.4,0,0,0,5.579-2.623c2.089,2.261,7.439,4.907,8.131,5.244-.727,1.791-1.454,3.524-2.165,5.151-.213.492-.42.95-.628,1.42H74.1c.067-.16.132-.314.2-.479.748-1.815,1.509-3.77,2.273-5.784.767.16,7.046,1.436,9.972.775,2.654-.6,5.869-2.1,7.057-4.725a4.826,4.826,0,0,0-2.665-6.672c-3.866-1.3-9.77,3.092-11.933,6.025-.128.173-1.3,2.2-2.022,3.5.307-.825.615-1.622.922-2.476.617-1.682,1.183-3.379,1.8-5.2l.808-2.7c.29-.9.48-1.878.727-2.825.526-2.208.95-4.472,1.328-6.76,1.475.536,6.739,2.367,9.465,2.176s6.119-1.188,7.691-3.6a4.828,4.828,0,0,0-1.622-7c-3.626-1.87-10.126,1.579-12.708,4.147-.162.161-1.807,2.214-2.69,3.357.218-1.377.439-2.752.613-4.153.5-4.045.884-8.156,1.285-12.254.121-1.256.257-2.506.389-3.757.523.2,6.732,2.509,9.786,2.294,2.714-.19,6.12-1.187,7.691-3.6a4.827,4.827,0,0,0-1.622-7c-3.626-1.87-10.126,1.577-12.708,4.147-.194.193-2.558,3.149-3.122,3.931.291-2.756.606-5.5,1.028-8.191a84.982,84.982,0,0,1,2.351-10.774c.243.092,6.713,2.533,9.84,2.314,2.715-.19,6.12-1.188,7.691-3.6a4.826,4.826,0,0,0-1.622-7c-3.626-1.871-10.126,1.577-12.708,4.147-.2.2-2.744,3.383-3.164,3.993.061-.205.1-.424.163-.627a62.184,62.184,0,0,1,4.268-10.2c.929-1.817,1.917-3.5,2.915-5.115,1.158.578,6.482,3.163,9.318,3.276,2.719.109,6.213-.509,8.04-2.734a4.827,4.827,0,0,0-.843-7.134c-3.4-2.257-10.239.456-13.087,2.726-.155.122-1.591,1.553-2.622,2.608.461-.722.925-1.477,1.38-2.159,1.706-2.57,3.428-4.819,4.968-6.8.885-1.119,1.706-2.113,2.487-3.034,1.432-.026,7.205-.2,9.729-1.385,2.462-1.157,5.28-3.314,5.875-6.132a4.828,4.828,0,0,0-4.037-5.943c-4.056-.438-8.876,5.122-10.358,8.449-.128.288-1.614,5.016-1.539,5.016h.086c-.768.871-1.58,1.815-2.447,2.863-1.587,1.95-3.363,4.166-5.13,6.71a85.707,85.707,0,0,0-5.321,8.474,63.017,63.017,0,0,0-4.544,10.23c-.014.042-.023.087-.037.129.02-1.2-.031-4.539-.065-4.794-.469-3.613-3.5-10.319-7.508-11.06a4.827,4.827,0,0,0-5.568,4.54c-.235,2.87,1.845,5.743,3.875,7.556,2.288,2.045,8.641,4.025,9.148,4.181a85.391,85.391,0,0,0-2.684,11.082c-.39,2.184-.714,4.393-1.012,6.614-.015-1.033-.035-1.958-.053-2.087-.469-3.613-3.5-10.317-7.508-11.06a4.828,4.828,0,0,0-5.568,4.541c-.235,2.87,1.845,5.743,3.875,7.556,2.059,1.838,7.44,3.636,8.871,4.093-.1.853-.219,1.7-.321,2.556-.49,4.094-.96,8.183-1.543,12.178-.205,1.409-.46,2.787-.708,4.168-.015-.918-.035-1.691-.049-1.808-.469-3.613-3.5-10.319-7.508-11.06a4.829,4.829,0,0,0-5.569,4.541c-.235,2.869,1.846,5.743,3.877,7.555,1.965,1.755,6.918,3.459,8.615,4.01-.3,1.406-.594,2.815-.945,4.165-.262.915-.45,1.815-.763,2.721l-.865,2.683c-.615,1.683-1.236,3.426-1.875,5.054-.435,1.137-.872,2.211-1.308,3.293.22-1.4.594-4.147.6-4.38a18.746,18.746,0,0,0-2.514-9.12,5.631,5.631,0,0,0-.067-1.069,4.829,4.829,0,0,0-5.9-4.1c-3.942,1.05-6.442,7.971-6.629,11.608-.011.215.129,2.556.242,4.033-.2-.858-.381-1.693-.6-2.573-.415-1.743-.878-3.471-1.369-5.333q-.4-1.336-.817-2.7c-.253-.906-.636-1.832-.953-2.758-.779-2.132-1.672-4.255-2.62-6.373,1.526-.366,6.926-1.742,9.094-3.406s4.449-4.367,4.429-7.246a4.829,4.829,0,0,0-5.215-4.944c-4.056.44-7.576,6.9-8.312,10.47-.046.223-.287,2.842-.39,4.284-.581-1.269-1.153-2.539-1.781-3.8-1.812-3.651-3.76-7.291-5.689-10.929-.59-1.114-1.165-2.231-1.747-3.348.545-.125,7-1.622,9.428-3.485,2.159-1.656,4.449-4.367,4.427-7.247a4.826,4.826,0,0,0-5.213-4.943c-4.056.441-7.576,6.9-8.312,10.47-.056.269-.4,4.038-.435,5-1.278-2.458-2.528-4.921-3.663-7.4a84.9,84.9,0,0,1-3.981-10.284c.254-.057,7-1.589,9.484-3.5,2.159-1.656,4.449-4.366,4.429-7.246a4.827,4.827,0,0,0-5.214-4.943c-4.056.441-7.576,6.9-8.312,10.47-.058.28-.422,4.336-.435,5.074-.063-.2-.151-.406-.211-.61a62.205,62.205,0,0,1-2.064-10.86c-.228-2.025-.332-3.974-.39-5.873,1.285-.158,7.151-.938,9.579-2.408,2.328-1.41,4.9-3.852,5.2-6.717a4.827,4.827,0,0,0-4.639-5.485c-4.08-.008-8.289,6.028-9.412,9.494-.061.189-.47,2.173-.748,3.622-.012-.858-.044-1.742-.039-2.563.005-3.085.2-5.911.394-8.411.121-1.421.258-2.7.4-3.9,1.18-.813,5.9-4.143,7.349-6.524,1.417-2.322,2.575-5.675,1.517-8.354a4.827,4.827,0,0,0-6.645-2.732c-3.625,1.874-4.578,9.17-3.98,12.762.053.311,1.422,5.074,1.485,5.034,0,0,.057-.041.071-.049-.16,1.149-.317,2.385-.462,3.739-.249,2.5-.506,5.329-.578,8.426a85.775,85.775,0,0,0,.238,10A63.215,63.215,0,0,0,35.415,376.9c.012.042.03.084.042.128-.642-1.009-2.532-3.768-2.7-3.964-2.384-2.755-8.608-6.678-12.364-5.083a4.829,4.829,0,0,0-2.14,6.86c1.388,2.524,4.709,3.77,7.4,4.163" transform="translate(6.331 117.06)" fill="#3d3d3d"/>
        <path id="Path_24606" data-name="Path 24606" d="M77.593,355.541c.063.039,1.3-4.759,1.346-5.07.5-3.609-.649-10.876-4.323-12.651a4.828,4.828,0,0,0-6.569,2.91c-.984,2.706.264,6.026,1.743,8.311,1.735,2.683,7.8,6.5,7.8,6.5" transform="translate(24.351 121.353)" fill="#3d3d3d"/>
        <path id="Path_24607" data-name="Path 24607" d="M164.493,385.109a15.96,15.96,0,0,0,4.66.515c.034,0-.711-2.163-.774-2.294-.725-1.517-3.019-4.023-4.884-3.77a2.229,2.229,0,0,0-1.789,2.793,4.66,4.66,0,0,0,2.787,2.756" transform="translate(58.143 136.526)" fill="#3d3d3d"/>
        <path id="Path_24608" data-name="Path 24608" d="M165.56,397.22a15.5,15.5,0,0,0,4.586-.721,39.183,39.183,0,0,0,1.789,4.951c.405.94.843,1.874,1.294,2.8-.269-.394-.513-.745-.552-.79-1.1-1.271-3.974-3.082-5.707-2.345a2.228,2.228,0,0,0-.989,3.165,4.659,4.659,0,0,0,3.417,1.923,14.759,14.759,0,0,0,4.457-.684c.177.355.349.712.528,1.066.854,1.7,1.715,3.4,2.506,5.081.28.594.533,1.191.79,1.785-.239-.349-.445-.642-.48-.684-1.1-1.271-3.974-3.082-5.707-2.345a2.228,2.228,0,0,0-.988,3.165,4.659,4.659,0,0,0,3.417,1.923,14.223,14.223,0,0,0,4.337-.65c.243.617.488,1.235.7,1.844.133.419.29.813.4,1.241s.234.839.349,1.254c.193.8.4,1.633.566,2.423.121.548.227,1.073.336,1.6-.272-.6-.828-1.749-.885-1.84-.895-1.424-3.46-3.648-5.287-3.184a2.23,2.23,0,0,0-1.455,2.981,4.66,4.66,0,0,0,3.085,2.418,15.3,15.3,0,0,0,4.616-.014c.175.874.337,1.727.477,2.535.076.427.141.828.208,1.232h1.164c-.086-.465-.175-.941-.275-1.437-.174-.889-.379-1.836-.6-2.805a24.312,24.312,0,0,0,2.575-1.211,16.261,16.261,0,0,0,3.754,2.42c-.336.827-.672,1.628-1,2.378-.1.227-.194.439-.291.655h1.226c.031-.075.061-.145.092-.222.344-.838.7-1.74,1.048-2.669a15.36,15.36,0,0,0,4.6.358,4.666,4.666,0,0,0,3.258-2.181,2.229,2.229,0,0,0-1.231-3.08c-1.785-.6-4.51,1.428-5.508,2.781-.058.079-.6,1.017-.934,1.614.143-.381.284-.749.426-1.142.286-.776.547-1.56.831-2.4.124-.412.247-.827.374-1.247s.22-.867.334-1.3c.243-1.02.439-2.064.613-3.121a14.664,14.664,0,0,0,4.37,1,4.658,4.658,0,0,0,3.549-1.662A2.229,2.229,0,0,0,199,410.85c-1.674-.862-4.673.729-5.866,1.914-.075.073-.833,1.021-1.241,1.55.1-.636.2-1.27.284-1.917.231-1.867.408-3.765.591-5.656.057-.579.12-1.156.181-1.734a15.464,15.464,0,0,0,4.517,1.058,4.659,4.659,0,0,0,3.55-1.662,2.229,2.229,0,0,0-.749-3.231c-1.674-.863-4.675.727-5.866,1.914-.09.088-1.182,1.454-1.441,1.814.135-1.271.28-2.539.475-3.781a39.223,39.223,0,0,1,1.085-4.972,15.774,15.774,0,0,0,4.543,1.069,4.664,4.664,0,0,0,3.55-1.663,2.229,2.229,0,0,0-.749-3.231c-1.674-.863-4.675.727-5.866,1.914-.094.092-1.267,1.561-1.46,1.844.027-.1.046-.2.075-.29a28.692,28.692,0,0,1,1.97-4.706c.428-.839.885-1.615,1.346-2.362a14.976,14.976,0,0,0,4.3,1.513,4.661,4.661,0,0,0,3.711-1.263,2.229,2.229,0,0,0-.389-3.293c-1.569-1.042-4.726.211-6.041,1.258-.072.057-.734.718-1.21,1.2.213-.333.427-.681.638-1,.787-1.187,1.581-2.224,2.292-3.138.409-.515.789-.975,1.149-1.4a14.843,14.843,0,0,0,4.491-.639,4.663,4.663,0,0,0,2.711-2.829,2.229,2.229,0,0,0-1.864-2.744c-1.871-.2-4.1,2.365-4.781,3.9-.058.133-.745,2.316-.711,2.316h.041c-.355.4-.73.838-1.13,1.322-.733.9-1.553,1.923-2.369,3.1a39.785,39.785,0,0,0-2.456,3.912,29.073,29.073,0,0,0-2.1,4.722l-.016.06c.01-.552-.015-2.1-.03-2.212-.216-1.668-1.614-4.763-3.466-5.106a2.23,2.23,0,0,0-2.571,2.1,4.66,4.66,0,0,0,1.789,3.488,15.589,15.589,0,0,0,4.222,1.931,39.51,39.51,0,0,0-1.239,5.115c-.179,1.008-.329,2.027-.466,3.053-.007-.477-.016-.9-.024-.964-.216-1.667-1.614-4.762-3.466-5.1a2.227,2.227,0,0,0-2.57,2.1,4.659,4.659,0,0,0,1.788,3.488,14.751,14.751,0,0,0,4.1,1.89c-.049.393-.1.786-.148,1.18-.226,1.89-.443,3.776-.712,5.621-.1.65-.212,1.286-.328,1.923-.005-.423-.015-.781-.022-.834-.216-1.668-1.614-4.763-3.466-5.106a2.23,2.23,0,0,0-2.571,2.1,4.66,4.66,0,0,0,1.789,3.488,14.225,14.225,0,0,0,3.977,1.851c-.137.65-.273,1.3-.436,1.923-.121.423-.207.839-.352,1.256s-.268.829-.4,1.237c-.284.778-.571,1.583-.866,2.333-.2.525-.4,1.021-.6,1.52.1-.646.275-1.914.277-2.022a8.653,8.653,0,0,0-1.161-4.21,2.594,2.594,0,0,0-.03-.492,2.229,2.229,0,0,0-2.726-1.89c-1.819.484-2.974,3.678-3.059,5.357-.005.1.06,1.18.111,1.861-.091-.4-.175-.78-.275-1.187-.19-.8-.405-1.6-.632-2.462q-.186-.616-.377-1.244c-.117-.419-.294-.846-.439-1.273-.36-.984-.774-1.965-1.21-2.942a14.625,14.625,0,0,0,4.2-1.572,4.659,4.659,0,0,0,2.044-3.345,2.228,2.228,0,0,0-2.407-2.282c-1.872.2-3.5,3.186-3.837,4.832-.02.1-.132,1.312-.179,1.977-.268-.585-.532-1.171-.823-1.755-.836-1.685-1.735-3.365-2.626-5.045-.272-.514-.538-1.029-.806-1.545a15.527,15.527,0,0,0,4.352-1.61,4.66,4.66,0,0,0,2.044-3.345,2.227,2.227,0,0,0-2.407-2.28c-1.872.2-3.5,3.184-3.837,4.832-.026.124-.182,1.864-.2,2.307-.59-1.134-1.167-2.271-1.69-3.414a39.285,39.285,0,0,1-1.838-4.747,15.768,15.768,0,0,0,4.378-1.615,4.656,4.656,0,0,0,2.044-3.345,2.228,2.228,0,0,0-2.407-2.282c-1.872.2-3.5,3.186-3.837,4.832-.026.129-.194,2-.2,2.343-.03-.094-.071-.188-.1-.281a28.82,28.82,0,0,1-.953-5.013c-.1-.934-.152-1.834-.179-2.711a15,15,0,0,0,4.422-1.111,4.66,4.66,0,0,0,2.4-3.1,2.228,2.228,0,0,0-2.142-2.532c-1.883,0-3.826,2.782-4.344,4.381-.029.087-.218,1-.345,1.672-.005-.4-.02-.8-.018-1.183,0-1.424.092-2.729.181-3.882.056-.657.12-1.248.186-1.8a14.918,14.918,0,0,0,3.393-3.01,4.659,4.659,0,0,0,.7-3.857,2.229,2.229,0,0,0-3.068-1.26c-1.674.865-2.113,4.233-1.837,5.892.024.143.657,2.341.685,2.322l.033-.022c-.073.53-.147,1.1-.213,1.725-.114,1.154-.234,2.46-.266,3.89a39.219,39.219,0,0,0,.11,4.618,29.024,29.024,0,0,0,.855,5.095c.005.02.014.039.019.06-.3-.466-1.168-1.739-1.247-1.83-1.1-1.271-3.973-3.081-5.707-2.345a2.227,2.227,0,0,0-.987,3.165,4.656,4.656,0,0,0,3.416,1.923" transform="translate(58.217 133.989)" fill="#3d3d3d"/>
        <path id="Path_24609" data-name="Path 24609" d="M189.535,386.391c.029.019.6-2.2.621-2.34.231-1.666-.3-5.02-1.995-5.84a2.228,2.228,0,0,0-3.032,1.343,4.652,4.652,0,0,0,.8,3.836,15.937,15.937,0,0,0,3.6,3" transform="translate(66.535 135.971)" fill="#3d3d3d"/>
        <path id="Path_24610" data-name="Path 24610" d="M228.957,17.987c-8.232,4.812-11.337,14.131-12.828,18.6-2.059,6.177-9.265-4.117-23.679,1.029s-16.472,16.473-19.561,19.562S149.21,68.5,149.21,68.5H355.824" transform="translate(53.673 6.47)" fill="none" stroke="#3d3d3d" stroke-linecap="round" stroke-linejoin="round" stroke-width="1"/>
        <path id="Path_24611" data-name="Path 24611" d="M341.879,74.793h25.032s4.119-22.65-5.148-33.975-29.857,5.148-36.034-11.325c0,0-18.531-26.767-41.182-28.826s-31.915,15.442-39.122,24.709S234.1,21.257,216.6,21.257" transform="translate(77.913 0.18)" fill="none" stroke="#3d3d3d" stroke-linecap="round" stroke-linejoin="round" stroke-width="1"/>
        <path id="Path_24612" data-name="Path 24612" d="M237.277,41.616a16.152,16.152,0,0,0-4.778,9.121" transform="translate(83.633 14.97)" fill="none" stroke="#3d3d3d" stroke-linecap="round" stroke-linejoin="round" stroke-width="1"/>
        <path id="Path_24613" data-name="Path 24613" d="M313.168,32.193S298.755,17.78,282.282,18.809s-10.3,20.59-17.5,26.767-15.444-2.059-24.709,1.029" transform="translate(86.356 6.747)" fill="none" stroke="#3d3d3d" stroke-linecap="round" stroke-linejoin="round" stroke-width="1"/>
        <path id="Path_24614" data-name="Path 24614" d="M69.763,65.277c-5.378,3.144-7.406,9.232-8.38,12.152-1.346,4.036-6.053-2.691-15.471.673s-10.762,10.762-12.78,12.78-15.471,7.4-15.471,7.4H152.649" transform="translate(6.353 23.481)" fill="none" stroke="#3d3d3d" stroke-linecap="round" stroke-linejoin="round" stroke-width="1"/>
        <path id="Path_24615" data-name="Path 24615" d="M143.538,102.389h16.355s2.691-14.8-3.364-22.2-19.505,3.364-23.541-7.4c0,0-12.108-17.489-26.906-18.833S85.231,64.051,80.522,70.1s-7.4-2.69-18.833-2.69" transform="translate(22.19 19.371)" fill="none" stroke="#3d3d3d" stroke-linecap="round" stroke-linejoin="round" stroke-width="1"/>
        <path id="Path_24616" data-name="Path 24616" d="M75.2,80.715a10.558,10.558,0,0,0-3.122,5.96" transform="translate(25.927 29.034)" fill="none" stroke="#3d3d3d" stroke-linecap="round" stroke-linejoin="round" stroke-width="1"/>
        <path id="Path_24617" data-name="Path 24617" d="M124.781,74.558s-9.417-9.417-20.178-8.744S97.877,79.267,93.168,83.3s-10.089-1.346-16.144.672" transform="translate(27.706 23.662)" fill="none" stroke="#3d3d3d" stroke-linecap="round" stroke-linejoin="round" stroke-width="1"/>
        <path id="Path_24618" data-name="Path 24618" d="M267.735,105.131c-3.75,2.192-5.165,6.438-5.844,8.474-.938,2.815-4.222-1.876-10.788.469s-7.5,7.5-8.912,8.912-10.789,5.16-10.789,5.16h94.133" transform="translate(83.238 37.817)" fill="none" stroke="#3d3d3d" stroke-linecap="round" stroke-linejoin="round" stroke-width="1"/>
        <path id="Path_24619" data-name="Path 24619" d="M319.181,131.011h11.405s1.875-10.319-2.345-15.479-13.6,2.346-16.417-5.159c0,0-8.442-12.2-18.763-13.133s-14.541,7.035-17.823,11.257-5.16-1.876-13.133-1.876" transform="translate(94.282 34.951)" fill="none" stroke="#3d3d3d" stroke-linecap="round" stroke-linejoin="round" stroke-width="1"/>
        <path id="Path_24620" data-name="Path 24620" d="M271.525,115.9a7.358,7.358,0,0,0-2.177,4.155" transform="translate(96.888 41.689)" fill="none" stroke="#3d3d3d" stroke-linecap="round" stroke-linejoin="round" stroke-width="1"/>
        <path id="Path_24621" data-name="Path 24621" d="M306.1,111.6s-6.566-6.566-14.072-6.1-4.691,9.382-7.973,12.2-7.036-.937-11.257.469" transform="translate(98.129 37.943)" fill="none" stroke="#3d3d3d" stroke-linecap="round" stroke-linejoin="round" stroke-width="1"/>
        <path id="Path_24622" data-name="Path 24622" d="M105.381,383.68V326.972H36.419V293.346L96.547,152.858h45.879V295.626h23.652v31.345H142.426V383.68ZM69.475,295.626h35.906V195.319Z" transform="translate(13.1 54.985)" fill="#3d3d3d"/>
        <path id="Path_24623" data-name="Path 24623" d="M105.381,383.68V326.972H36.419V293.346L96.547,152.858h45.879V295.626h23.652v31.345H142.426V383.68ZM69.475,295.626h35.906V195.319Z" transform="translate(13.1 54.985)" fill="none" stroke="#3d3d3d" stroke-linecap="round" stroke-linejoin="round" stroke-width="1"/>
        <path id="Path_24624" data-name="Path 24624" d="M207.2,387.853q-20.237,0-33.483-8.549a52.952,52.952,0,0,1-19.948-23.652q-6.7-15.1-6.7-34.765v-102.3q0-20.232,6.412-35.479a51.156,51.156,0,0,1,19.661-23.795q13.253-8.55,34.054-8.549t34.053,8.549a51.153,51.153,0,0,1,19.664,23.795q6.41,15.248,6.411,35.479v102.3q0,19.661-6.7,34.765A52.978,52.978,0,0,1,240.686,379.3q-13.249,8.548-33.483,8.549m0-33.91q8.829,0,13.109-5.414a29.452,29.452,0,0,0,5.7-13.109,82.884,82.884,0,0,0,1.425-15.1V219.154a97.772,97.772,0,0,0-1.282-15.815,28.374,28.374,0,0,0-5.557-13.252q-4.273-5.409-13.393-5.414t-13.393,5.414a28.375,28.375,0,0,0-5.557,13.252,97.776,97.776,0,0,0-1.282,15.815V320.316a75.37,75.37,0,0,0,1.568,15.1,30.621,30.621,0,0,0,5.841,13.109q4.275,5.415,12.823,5.414" transform="translate(52.905 54.231)" fill="#3d3d3d"/>
        <path id="Path_24625" data-name="Path 24625" d="M207.2,387.853q-20.237,0-33.483-8.549a52.952,52.952,0,0,1-19.948-23.652q-6.7-15.1-6.7-34.765v-102.3q0-20.232,6.412-35.479a51.156,51.156,0,0,1,19.661-23.795q13.253-8.55,34.054-8.549t34.053,8.549a51.153,51.153,0,0,1,19.664,23.795q6.41,15.248,6.411,35.479v102.3q0,19.661-6.7,34.765A52.978,52.978,0,0,1,240.686,379.3Q227.437,387.852,207.2,387.853Zm0-33.91q8.829,0,13.109-5.414a29.452,29.452,0,0,0,5.7-13.109,82.884,82.884,0,0,0,1.425-15.1V219.154a97.772,97.772,0,0,0-1.282-15.815,28.374,28.374,0,0,0-5.557-13.252q-4.273-5.409-13.393-5.414t-13.393,5.414a28.375,28.375,0,0,0-5.557,13.252,97.776,97.776,0,0,0-1.282,15.815V320.316a75.37,75.37,0,0,0,1.568,15.1,30.621,30.621,0,0,0,5.841,13.109Q198.654,353.944,207.2,353.943Z" transform="translate(52.905 54.231)" fill="none" stroke="#3d3d3d" stroke-linecap="round" stroke-linejoin="round" stroke-width="1"/>
        <path id="Path_24626" data-name="Path 24626" d="M322.922,383.68V326.972H253.96V293.346l60.128-140.488h45.878V295.626h23.652v31.345H359.966V383.68Zm-35.907-88.054h35.907V195.319Z" transform="translate(91.352 54.985)" fill="#3d3d3d"/>
        <path id="Path_24627" data-name="Path 24627" d="M322.922,383.68V326.972H253.96V293.346l60.128-140.488h45.878V295.626h23.652v31.345H359.966V383.68Zm-35.907-88.054h35.907V195.319Z" transform="translate(91.352 54.985)" fill="none" stroke="#3d3d3d" stroke-linecap="round" stroke-linejoin="round" stroke-width="1"/>
        <path id="Path_24628" data-name="Path 24628" d="M118.018,383.68V326.972H49.056V293.346l60.128-140.488h45.879V295.626h23.652v31.345H155.063V383.68ZM82.112,295.626h35.906V195.319Z" transform="translate(17.646 54.985)" fill="#fff"/>
        <path id="Path_24629" data-name="Path 24629" d="M118.018,383.68V326.972H49.056V293.346l60.128-140.488h45.879V295.626h23.652v31.345H155.063V383.68ZM82.112,295.626h35.906V195.319Z" transform="translate(17.646 54.985)" fill="none" stroke="#3d3d3d" stroke-linecap="round" stroke-linejoin="round" stroke-width="1"/>
        <path id="Path_24630" data-name="Path 24630" d="M219.84,387.853q-20.237,0-33.483-8.549a52.952,52.952,0,0,1-19.948-23.652q-6.7-15.1-6.7-34.765v-102.3q0-20.232,6.412-35.479a51.15,51.15,0,0,1,19.663-23.795q13.251-8.55,34.053-8.549t34.053,8.549a51.153,51.153,0,0,1,19.664,23.795q6.41,15.248,6.411,35.479v102.3q0,19.661-6.7,34.765A52.978,52.978,0,0,1,253.323,379.3q-13.249,8.548-33.483,8.549m0-33.91q8.829,0,13.109-5.414a29.452,29.452,0,0,0,5.7-13.109,82.881,82.881,0,0,0,1.425-15.1V219.154a97.771,97.771,0,0,0-1.282-15.815,28.374,28.374,0,0,0-5.557-13.252q-4.273-5.409-13.393-5.414t-13.393,5.414a28.374,28.374,0,0,0-5.557,13.252,97.772,97.772,0,0,0-1.282,15.815V320.316a75.372,75.372,0,0,0,1.568,15.1,30.621,30.621,0,0,0,5.841,13.109q4.275,5.415,12.823,5.414" transform="translate(57.45 54.231)" fill="#fff"/>
        <path id="Path_24631" data-name="Path 24631" d="M219.84,387.853q-20.237,0-33.483-8.549a52.952,52.952,0,0,1-19.948-23.652q-6.7-15.1-6.7-34.765v-102.3q0-20.232,6.412-35.479a51.15,51.15,0,0,1,19.663-23.795q13.251-8.55,34.053-8.549t34.053,8.549a51.153,51.153,0,0,1,19.664,23.795q6.41,15.248,6.411,35.479v102.3q0,19.661-6.7,34.765A52.978,52.978,0,0,1,253.323,379.3Q240.074,387.852,219.84,387.853Zm0-33.91q8.829,0,13.109-5.414a29.452,29.452,0,0,0,5.7-13.109,82.881,82.881,0,0,0,1.425-15.1V219.154a97.771,97.771,0,0,0-1.282-15.815,28.374,28.374,0,0,0-5.557-13.252q-4.273-5.409-13.393-5.414t-13.393,5.414a28.374,28.374,0,0,0-5.557,13.252,97.772,97.772,0,0,0-1.282,15.815V320.316a75.372,75.372,0,0,0,1.568,15.1,30.621,30.621,0,0,0,5.841,13.109Q211.291,353.944,219.84,353.943Z" transform="translate(57.45 54.231)" fill="none" stroke="#3d3d3d" stroke-linecap="round" stroke-linejoin="round" stroke-width="1"/>
        <path id="Path_24632" data-name="Path 24632" d="M335.558,383.68V326.972H266.6V293.346l60.128-140.488H372.6V295.626h23.652v31.345H372.6V383.68Zm-35.907-88.054h35.907V195.319Z" transform="translate(95.898 54.985)" fill="#fff"/>
        <path id="Path_24633" data-name="Path 24633" d="M335.558,383.68V326.972H266.6V293.346l60.128-140.488H372.6V295.626h23.652v31.345H372.6V383.68Zm-35.907-88.054h35.907V195.319Z" transform="translate(95.898 54.985)" fill="none" stroke="#3d3d3d" stroke-linecap="round" stroke-linejoin="round" stroke-width="1"/>
        <path id="Path_24634" data-name="Path 24634" d="M95.49,156.916a14.283,14.283,0,0,1-7.652-1.788,9.859,9.859,0,0,1-4.075-5.137,23.026,23.026,0,0,1-1.228-7.93V125.14a22.314,22.314,0,0,1,1.228-7.846,9.614,9.614,0,0,1,4.075-5,14.661,14.661,0,0,1,7.652-1.731,14.753,14.753,0,0,1,7.733,1.731,9.8,9.8,0,0,1,4.076,5,21.884,21.884,0,0,1,1.256,7.846v16.977a22.155,22.155,0,0,1-1.256,7.846,10.21,10.21,0,0,1-4.076,5.138,14.2,14.2,0,0,1-7.733,1.815m0-6.087a4.408,4.408,0,0,0,3.043-.893,4.5,4.5,0,0,0,1.311-2.457,16.2,16.2,0,0,0,.336-3.407V123.242a15.7,15.7,0,0,0-.336-3.406,4.321,4.321,0,0,0-1.311-2.374,4.508,4.508,0,0,0-3.043-.865,4.427,4.427,0,0,0-2.961.865,4.233,4.233,0,0,0-1.339,2.374,15.7,15.7,0,0,0-.336,3.406v20.829a17.655,17.655,0,0,0,.307,3.407,4.265,4.265,0,0,0,1.312,2.457,4.424,4.424,0,0,0,3.017.893" transform="translate(29.689 39.771)" fill="#3d3d3d"/>
        <path id="Path_24635" data-name="Path 24635" d="M118.612,156.916a14.281,14.281,0,0,1-7.651-1.788,9.868,9.868,0,0,1-4.076-5.137,23.059,23.059,0,0,1-1.228-7.93V125.14a22.346,22.346,0,0,1,1.228-7.846,9.623,9.623,0,0,1,4.076-5,14.659,14.659,0,0,1,7.651-1.731,14.755,14.755,0,0,1,7.734,1.731,9.8,9.8,0,0,1,4.076,5,21.883,21.883,0,0,1,1.258,7.846v16.977a22.154,22.154,0,0,1-1.258,7.846,10.21,10.21,0,0,1-4.076,5.138,14.206,14.206,0,0,1-7.734,1.815m0-6.087a4.409,4.409,0,0,0,3.044-.893,4.5,4.5,0,0,0,1.311-2.457,16.2,16.2,0,0,0,.336-3.407V123.242a15.7,15.7,0,0,0-.336-3.406,4.321,4.321,0,0,0-1.311-2.374,4.509,4.509,0,0,0-3.044-.865,4.425,4.425,0,0,0-2.96.865,4.233,4.233,0,0,0-1.339,2.374,15.7,15.7,0,0,0-.336,3.406v20.829a17.655,17.655,0,0,0,.307,3.407,4.265,4.265,0,0,0,1.312,2.457,4.422,4.422,0,0,0,3.016.893" transform="translate(38.006 39.771)" fill="#3d3d3d"/>
        <path id="Path_24636" data-name="Path 24636" d="M129.272,156.17V110.935h13.29a12.857,12.857,0,0,1,6.618,1.508,8.949,8.949,0,0,1,3.742,4.384,18.028,18.028,0,0,1,1.2,6.954,14.594,14.594,0,0,1-1.508,7.119,8.979,8.979,0,0,1-4.216,3.938A15.372,15.372,0,0,1,142,136.065h-4.468v20.1Zm8.264-25.912h3.127a7.782,7.782,0,0,0,3.49-.642,3.439,3.439,0,0,0,1.731-2.067,12.5,12.5,0,0,0,.475-3.826,17.9,17.9,0,0,0-.363-3.992,3.426,3.426,0,0,0-1.564-2.261,7.524,7.524,0,0,0-3.769-.726h-3.127Z" transform="translate(46.501 39.905)" fill="#3d3d3d"/>
        <path id="Path_24637" data-name="Path 24637" d="M162.439,156.916a13.36,13.36,0,0,1-6.814-1.592,10.022,10.022,0,0,1-4.132-4.662,19.993,19.993,0,0,1-1.564-7.538l7.092-1.4a21.958,21.958,0,0,0,.642,4.635,6.709,6.709,0,0,0,1.619,3.1,3.888,3.888,0,0,0,2.876,1.089,3.225,3.225,0,0,0,2.849-1.2,5.2,5.2,0,0,0,.838-3.043,8.223,8.223,0,0,0-1.341-4.858,20.859,20.859,0,0,0-3.573-3.8l-5.7-5.027a17.1,17.1,0,0,1-3.826-4.607,12.7,12.7,0,0,1-1.424-6.282q0-5.362,3.127-8.266t8.544-2.9a12.708,12.708,0,0,1,5.306.978,8.455,8.455,0,0,1,3.378,2.709,12.211,12.211,0,0,1,1.871,3.938,23.239,23.239,0,0,1,.782,4.662l-7.037,1.229a24.012,24.012,0,0,0-.475-3.8,5.292,5.292,0,0,0-1.284-2.626,3.61,3.61,0,0,0-2.709-.949,3.427,3.427,0,0,0-2.82,1.2,4.576,4.576,0,0,0-.978,2.989,6.855,6.855,0,0,0,.949,3.769,14.676,14.676,0,0,0,2.737,3.043l5.64,4.971a23.359,23.359,0,0,1,4.774,5.5,14.042,14.042,0,0,1,1.982,7.623,11.463,11.463,0,0,1-1.424,5.752,10.2,10.2,0,0,1-3.965,3.938,11.97,11.97,0,0,1-5.947,1.424" transform="translate(53.932 39.771)" fill="#3d3d3d"/>
        <path id="Path_24638" data-name="Path 24638" d="M170.178,148.783h7.371v7.371h-7.371Zm2.345-3.239-2.29-34.568h7.6l-2.681,34.568Z" transform="translate(61.215 39.919)" fill="#3d3d3d"/>
        <path id="Path_24639" data-name="Path 24639" d="M319.733,344.41v9.722H324.8v-5.7a4.528,4.528,0,0,1,4.529-4.528h16.621a4.528,4.528,0,0,1,4.528,4.528v5.7h5.065V344.41a4.528,4.528,0,0,0-4.528-4.528H324.261a4.528,4.528,0,0,0-4.528,4.528" transform="translate(115.012 122.259)" fill="#3d3d3d"/>
        <path id="Path_24640" data-name="Path 24640" d="M319.733,344.41v9.722H324.8v-5.7a4.528,4.528,0,0,1,4.529-4.528h16.621a4.528,4.528,0,0,1,4.528,4.528v5.7h5.065V344.41a4.528,4.528,0,0,0-4.528-4.528H324.261A4.528,4.528,0,0,0,319.733,344.41Z" transform="translate(115.012 122.259)" fill="none" stroke="#3d3d3d" stroke-linecap="round" stroke-linejoin="round" stroke-width="1"/>
        <path id="Path_24641" data-name="Path 24641" d="M386.065,348.414H290.152a6.393,6.393,0,0,0-6.393,6.393V431.9a4.115,4.115,0,0,0,4.116,4.116H388.343a4.115,4.115,0,0,0,4.116-4.116v-77.09a6.393,6.393,0,0,0-6.393-6.393" transform="translate(102.071 125.328)" fill="#3d3d3d"/>
        <path id="Path_24642" data-name="Path 24642" d="M386.065,348.414H290.152a6.393,6.393,0,0,0-6.393,6.393V431.9a4.115,4.115,0,0,0,4.116,4.116H388.343a4.115,4.115,0,0,0,4.116-4.116v-77.09A6.393,6.393,0,0,0,386.065,348.414Z" transform="translate(102.071 125.328)" fill="none" stroke="#3d3d3d" stroke-linecap="round" stroke-linejoin="round" stroke-width="1"/>
        <path id="Path_24643" data-name="Path 24643" d="M395.841,348.414H299.929a6.394,6.394,0,0,0-6.395,6.393V431.9a4.116,4.116,0,0,0,4.116,4.116H398.119a4.115,4.115,0,0,0,4.116-4.116v-77.09a6.393,6.393,0,0,0-6.393-6.393" transform="translate(105.587 125.328)" fill="#8a8a8a"/>
        <path id="Path_24644" data-name="Path 24644" d="M395.841,348.414H299.929a6.394,6.394,0,0,0-6.395,6.393V431.9a4.116,4.116,0,0,0,4.116,4.116H398.119a4.115,4.115,0,0,0,4.116-4.116v-77.09A6.393,6.393,0,0,0,395.841,348.414Z" transform="translate(105.587 125.328)" fill="none" stroke="#3d3d3d" stroke-linecap="round" stroke-linejoin="round" stroke-width="1"/>
        <path id="Path_24645" data-name="Path 24645" d="M404.855,226.17s-27.337,82.122-29.7,96.988-.842,33.324.579,42.662,15.977,89.986,15.977,89.986-3.6-1.216-3.867,1.39.643,13.637.643,13.637-3.776,5.288-13.717,11.046-14.775,7.5-11.805,9.377,15.66,2.559,20.843,1.787,19.119-2.4,21.386-2.775,9.126,1.086,11.309-2.865.6-15.94,1.152-20.178-2.532-10.992-2.555-11.965-2.747-92.127-2.747-92.127l1.723-22.638s-.507,21.56,1.973,23.964,28.339,92.39,28.339,92.39l-2.507,3.959,3.129,8.7-2.469,5.583s-11.767,11-16.579,13.714-9.669,3.477-7.017,5.689,28.625.955,28.625.955l27.171-5.511s4.117-4.647,3.376-8.529-4.317-17.776-4.317-17.776.873-18.22-.117-18.848-6.022-7.333-6.407-9.925-3.212-53.491-6.2-62.048-6.7-21.944-6.7-21.944,2.108-2.129,2.245-4.423a40.521,40.521,0,0,0-.534-6.476s28.373-73.832,29.673-78.057,7.148-26.969,7.148-36.066-.65-15.921-.65-15.921S470.165,220,447.746,220.97s-42.241-.324-42.241-.324Z" transform="translate(130.251 75.512)" fill="#3d3d3d"/>
        <path id="Path_24646" data-name="Path 24646" d="M404.855,226.17s-27.337,82.122-29.7,96.988-.842,33.324.579,42.662,15.977,89.986,15.977,89.986-3.6-1.216-3.867,1.39.643,13.637.643,13.637-3.776,5.288-13.717,11.046-14.775,7.5-11.805,9.377,15.66,2.559,20.843,1.787,19.119-2.4,21.386-2.775,9.126,1.086,11.309-2.865.6-15.94,1.152-20.178-2.532-10.992-2.555-11.965-2.747-92.127-2.747-92.127l1.723-22.638s-.507,21.56,1.973,23.964,28.339,92.39,28.339,92.39l-2.507,3.959,3.129,8.7-2.469,5.583s-11.767,11-16.579,13.714-9.669,3.477-7.017,5.689,28.625.955,28.625.955l27.171-5.511s4.117-4.647,3.376-8.529-4.317-17.776-4.317-17.776.873-18.22-.117-18.848-6.022-7.333-6.407-9.925-3.212-53.491-6.2-62.048-6.7-21.944-6.7-21.944,2.108-2.129,2.245-4.423a40.521,40.521,0,0,0-.534-6.476s28.373-73.832,29.673-78.057,7.148-26.969,7.148-36.066-.65-15.921-.65-15.921S470.165,220,447.746,220.97s-42.241-.324-42.241-.324Z" transform="translate(130.251 75.512)" fill="none" stroke="#3d3d3d" stroke-linecap="round" stroke-linejoin="round" stroke-width="1"/>
        <path id="Path_24647" data-name="Path 24647" d="M443.488,224.023s0,22.1,11.048,26.319" transform="translate(159.528 80.584)" fill="none" stroke="#fff" stroke-linecap="round" stroke-linejoin="round" stroke-width="1"/>
        <path id="Path_24648" data-name="Path 24648" d="M455.8,219.244s.65,14.946-2.275,28.268" transform="translate(163.138 78.865)" fill="none" stroke="#fff" stroke-linecap="round" stroke-linejoin="round" stroke-width="1"/>
        <path id="Path_24649" data-name="Path 24649" d="M441.057,269.051c-3.027,6.444-5.345,11.446-5.454,11.883" transform="translate(156.691 96.781)" fill="none" stroke="#fff" stroke-linecap="round" stroke-linejoin="round" stroke-width="1"/>
        <path id="Path_24650" data-name="Path 24650" d="M453.819,246.247s-7.088,14.873-12.856,27.109" transform="translate(158.619 88.578)" fill="none" stroke="#fff" stroke-linecap="round" stroke-linejoin="round" stroke-width="1"/>
        <path id="Path_24651" data-name="Path 24651" d="M402.587,307.537,414.581,256.1l-12.672-11.046" transform="translate(144.571 88.148)" fill="none" stroke="#fff" stroke-linecap="round" stroke-linejoin="round" stroke-width="1"/>
        <line id="Line_80" data-name="Line 80" y1="5.341" x2="1.245" transform="translate(544.552 401.517)" fill="none" stroke="#fff" stroke-linecap="round" stroke-linejoin="round" stroke-width="1"/>
        <path id="Path_24652" data-name="Path 24652" d="M376.314,156.346l-32.539,14.17s19.418-40.411,20.207-42.772-10.759-22.3-10.5-23.092,10.234-12.857,10.5-15.482,5.772-11.809,1.573-12.334-26.5,20.205-27.027,25.454,9.971,23.092,11.02,24.667-54.057,60.617-55.106,70.063,3.411,15.483,11.284,16.533,69.8-20.207,79.248-22.83,12.6,1.573,12.6,1.573,29.653,35.951,31.752,40.412,1.05,20.993-1.312,25.979-4.986,13.645-3.674,14.957,2.276,2.929,6.211,3.979,31.314,4.419,46.8,2.057,33.852-10.5,38.049-13.646,4.724-6.822,4.724-11.545-3.149-8.922-5.248-13.645-16.007-48.021-21.78-61.929-3.936-24.4-25.716-36.738-47.326-9.746-47.326-9.746Z" transform="translate(105.86 27.635)" fill="#0fc1a7"/>
        <path id="Path_24653" data-name="Path 24653" d="M376.314,156.346l-32.539,14.17s19.418-40.411,20.207-42.772-10.759-22.3-10.5-23.092,10.234-12.857,10.5-15.482,5.772-11.809,1.573-12.334-26.5,20.205-27.027,25.454,9.971,23.092,11.02,24.667-54.057,60.617-55.106,70.063,3.411,15.483,11.284,16.533,69.8-20.207,79.248-22.83,12.6,1.573,12.6,1.573,29.653,35.951,31.752,40.412,1.05,20.993-1.312,25.979-4.986,13.645-3.674,14.957,2.276,2.929,6.211,3.979,31.314,4.419,46.8,2.057,33.852-10.5,38.049-13.646,4.724-6.822,4.724-11.545-3.149-8.922-5.248-13.645-16.007-48.021-21.78-61.929-3.936-24.4-25.716-36.738-47.326-9.746-47.326-9.746Z" transform="translate(105.86 27.635)" fill="none" stroke="#3d3d3d" stroke-linecap="round" stroke-linejoin="round" stroke-width="1"/>
        <line id="Line_81" data-name="Line 81" x1="0.269" y2="4.09" transform="translate(448.061 217.941)" fill="none" stroke="#3d3d3d" stroke-linecap="round" stroke-linejoin="round" stroke-width="1"/>
        <path id="Path_24654" data-name="Path 24654" d="M324.509,171.971l8.4-26.241-1.1,16.7" transform="translate(116.729 52.421)" fill="none" stroke="#3d3d3d" stroke-linecap="round" stroke-linejoin="round" stroke-width="1"/>
        <path id="Path_24655" data-name="Path 24655" d="M323.93,128.554s1.312,9.972,14.17,10.5" transform="translate(116.521 46.242)" fill="none" stroke="#3d3d3d" stroke-linecap="round" stroke-linejoin="round" stroke-width="1"/>
        <path id="Path_24656" data-name="Path 24656" d="M373.192,162.51a90.794,90.794,0,0,0-19.156-9.447" transform="translate(127.351 55.059)" fill="#fff"/>
        <path id="Path_24657" data-name="Path 24657" d="M373.192,162.51a90.794,90.794,0,0,0-19.156-9.447" transform="translate(127.351 55.059)" fill="none" stroke="#3d3d3d" stroke-linecap="round" stroke-linejoin="round" stroke-width="1"/>
        <path id="Path_24658" data-name="Path 24658" d="M352.769,155.682c-1.048-.177-2.109-.344-3.172-.495" transform="translate(125.754 55.823)" fill="none" stroke="#3d3d3d" stroke-linecap="round" stroke-linejoin="round" stroke-width="1"/>
        <path id="Path_24659" data-name="Path 24659" d="M369.562,159.6s-6.688-1.958-14.921-3.558" transform="translate(127.568 56.13)" fill="none" stroke="#3d3d3d" stroke-linecap="round" stroke-linejoin="round" stroke-width="1"/>
        <path id="Path_24660" data-name="Path 24660" d="M401,198.08a7.285,7.285,0,0,0,1.751,1.244" transform="translate(144.243 71.252)" fill="none" stroke="#3d3d3d" stroke-linecap="round" stroke-linejoin="round" stroke-width="1"/>
        <path id="Path_24661" data-name="Path 24661" d="M393.6,191.468s4.628,4.3,8.1,7.323" transform="translate(141.582 68.873)" fill="none" stroke="#3d3d3d" stroke-linecap="round" stroke-linejoin="round" stroke-width="1"/>
        <line id="Line_82" data-name="Line 82" y1="14.694" x2="23.354" transform="translate(591.861 291.044)" fill="none" stroke="#3d3d3d" stroke-linecap="round" stroke-linejoin="round" stroke-width="1"/>
        <path id="Path_24662" data-name="Path 24662" d="M448.726,182.723c-2.634,10.667-7.742,28.838-13.827,37.608" transform="translate(156.438 65.728)" fill="none" stroke="#3d3d3d" stroke-linecap="round" stroke-linejoin="round" stroke-width="1"/>
        <path id="Path_24663" data-name="Path 24663" d="M446.728,176.608s-.332,1.61-.945,4.256" transform="translate(160.353 63.528)" fill="none" stroke="#3d3d3d" stroke-linecap="round" stroke-linejoin="round" stroke-width="1"/>
        <path id="Path_24664" data-name="Path 24664" d="M448.838,186.837s-4.986,21.78-8.922,27.816" transform="translate(158.243 67.207)" fill="none" stroke="#3d3d3d" stroke-linecap="round" stroke-linejoin="round" stroke-width="1"/>
        <path id="Path_24665" data-name="Path 24665" d="M345.749,141.881c3.435-7.254,6.245-13.269,6.533-14.138.787-2.362-10.758-22.3-10.5-23.092s10.233-12.857,10.5-15.482,5.773-11.809,1.575-12.334-26.5,20.207-27.028,25.454,9.972,23.092,11.022,24.667c.222.333-2.069,3.237-5.822,7.692,1.46,3.562,5.03,8.077,13.721,7.234" transform="translate(117.557 27.635)" fill="#fff"/>
        <path id="Path_24666" data-name="Path 24666" d="M345.749,141.881c3.435-7.254,6.245-13.269,6.533-14.138.787-2.362-10.758-22.3-10.5-23.092s10.233-12.857,10.5-15.482,5.773-11.809,1.575-12.334-26.5,20.207-27.028,25.454,9.972,23.092,11.022,24.667c.222.333-2.069,3.237-5.822,7.692C333.489,138.21,337.058,142.724,345.749,141.881Z" transform="translate(117.557 27.635)" fill="none" stroke="#3d3d3d" stroke-linecap="round" stroke-linejoin="round" stroke-width="1"/>
        <path id="Path_24667" data-name="Path 24667" d="M339.056,86.949s-6.577,12.743-6.335,13.711" transform="translate(119.681 31.277)" fill="none" stroke="#3d3d3d" stroke-linecap="round" stroke-linejoin="round" stroke-width="1"/>
        <path id="Path_24668" data-name="Path 24668" d="M335.649,87.066s-7.5,10.649-7.019,12.343" transform="translate(118.204 31.319)" fill="none" stroke="#3d3d3d" stroke-linecap="round" stroke-linejoin="round" stroke-width="1"/>
        <path id="Path_24669" data-name="Path 24669" d="M375.265,159.2l10.5,21.255,4.985.262,4.2-23.879-3.411-5.511-2.362,14.958-6.3-.262L375.527,155Z" transform="translate(134.987 54.434)" fill="#8a8a8a"/>
        <path id="Path_24670" data-name="Path 24670" d="M375.265,159.2l10.5,21.255,4.985.262,4.2-23.879-3.411-5.511-2.362,14.958-6.3-.262L375.527,155Z" transform="translate(134.987 54.434)" fill="none" stroke="#3d3d3d" stroke-linecap="round" stroke-linejoin="round" stroke-width="1"/>
        <path id="Path_24671" data-name="Path 24671" d="M385.285,172.749l-8.7,63.348,10.059,21.158,10.776-21.987-7.151-62.257Z" transform="translate(135.463 62.14)" fill="#8a8a8a"/>
        <path id="Path_24672" data-name="Path 24672" d="M385.285,172.749l-8.7,63.348,10.059,21.158,10.776-21.987-7.151-62.257Z" transform="translate(135.463 62.14)" fill="none" stroke="#3d3d3d" stroke-linecap="round" stroke-linejoin="round" stroke-width="1"/>
        <path id="Path_24673" data-name="Path 24673" d="M383.088,175.531l8.049-5.123,2.492-14.18-4.736,3.016-.834,5.278-6.3-.262-.223-.335-3.182,2.026Z" transform="translate(136.1 56.197)" fill="#3d3d3d"/>
        <path id="Path_24674" data-name="Path 24674" d="M386.675,172.96l.012-.071-.1.065Z" transform="translate(139.059 62.19)" fill="#3d3d3d"/>
        <path id="Path_24675" data-name="Path 24675" d="M391.553,186.687l-10.667,6.79-1.9,13.8,13.91-8.856Z" transform="translate(136.327 67.153)" fill="#3d3d3d"/>
        <path id="Path_24676" data-name="Path 24676" d="M389.947,184.618l-1.341-11.674-.092-.005-5.4,3.439-1.9,13.8Z" transform="translate(137.128 62.208)" fill="#3d3d3d"/>
        <path id="Path_24677" data-name="Path 24677" d="M394.508,200.474l-15.849,10.089-1.894,13.8,19.09-12.153Z" transform="translate(135.527 72.113)" fill="#3d3d3d"/>
        <path id="Path_24678" data-name="Path 24678" d="M392.524,229.165l4.328-8.83-.7-6.072-17.978,11.445,4.6,9.666Z" transform="translate(136.034 77.073)" fill="#3d3d3d"/>
        <path id="Path_24679" data-name="Path 24679" d="M370.353,147.594s-2.1,12.857-1.837,18.631,3.149,16.008,3.149,16.008l12.857-14.7,21.517,13.384s-.787-27.291-.787-28.078-4.985-30.177-6.559-33.064-5.773-4.461-8.135-3.936-20.205,31.752-20.205,31.752" transform="translate(132.551 41.634)" fill="#0fc1a7"/>
        <path id="Path_24680" data-name="Path 24680" d="M370.353,147.594s-2.1,12.857-1.837,18.631,3.149,16.008,3.149,16.008l12.857-14.7,21.517,13.384s-.787-27.291-.787-28.078-4.985-30.177-6.559-33.064-5.773-4.461-8.135-3.936S370.353,147.594,370.353,147.594Z" transform="translate(132.551 41.634)" fill="none" stroke="#3d3d3d" stroke-linecap="round" stroke-linejoin="round" stroke-width="1"/>
        <path id="Path_24681" data-name="Path 24681" d="M343.3,88.881s-.678,19.222-.226,26.913-.678,13.794,1.357,20.126,4.3,18.545,6.332,22.616a13.991,13.991,0,0,0,12.664,7.915c6.332,0,13.343-5.2,16.735-8.593s9.272-8.142,12.437-14.248.453-21.485.906-25.781,1.357-11.759,1.357-11.759,4.522-11.082.9-16.284-19.675-11.082-31.888-9.95A37.867,37.867,0,0,0,343.3,88.881" transform="translate(123.352 28.667)" fill="#fff"/>
        <path id="Path_24682" data-name="Path 24682" d="M343.3,88.881s-.678,19.222-.226,26.913-.678,13.794,1.357,20.126,4.3,18.545,6.332,22.616a13.991,13.991,0,0,0,12.664,7.915c6.332,0,13.343-5.2,16.735-8.593s9.272-8.142,12.437-14.248.453-21.485.906-25.781,1.357-11.759,1.357-11.759,4.522-11.082.9-16.284-19.675-11.082-31.888-9.95A37.867,37.867,0,0,0,343.3,88.881Z" transform="translate(123.352 28.667)" fill="none" stroke="#3d3d3d" stroke-linecap="round" stroke-linejoin="round" stroke-width="1"/>
        <path id="Path_24683" data-name="Path 24683" d="M351.672,102.417l1.81,6.785s-5.428,15.83-4.071,16.735,12.439-.227,12.439-.227" transform="translate(125.609 36.841)" fill="none" stroke="#3d3d3d" stroke-linecap="round" stroke-linejoin="round" stroke-width="1"/>
        <path id="Path_24684" data-name="Path 24684" d="M357.51,97.385s-.226,2.488.678,2.94,9.725,3.845,11.082,3.392-.453-2.261-1.583-2.714-10.63-5.654-10.177-3.618" transform="translate(128.591 34.861)" fill="#3d3d3d"/>
        <path id="Path_24685" data-name="Path 24685" d="M357.51,97.385s-.226,2.488.678,2.94,9.725,3.845,11.082,3.392-.453-2.261-1.583-2.714S357.057,95.35,357.51,97.385Z" transform="translate(128.591 34.861)" fill="none" stroke="#3d3d3d" stroke-linecap="round" stroke-linejoin="round" stroke-width="1"/>
        <path id="Path_24686" data-name="Path 24686" d="M353.4,100.9s-7.236,4.072-8.593,4.3.9-2.714.9-2.714,5.428-6.106,6.785-5.2.9,3.617.9,3.617" transform="translate(123.876 34.962)" fill="#3d3d3d"/>
        <path id="Path_24687" data-name="Path 24687" d="M353.4,100.9s-7.236,4.072-8.593,4.3.9-2.714.9-2.714,5.428-6.106,6.785-5.2S353.4,100.9,353.4,100.9Z" transform="translate(123.876 34.962)" fill="none" stroke="#3d3d3d" stroke-linecap="round" stroke-linejoin="round" stroke-width="1"/>
        <path id="Path_24688" data-name="Path 24688" d="M359.5,106.575a7.225,7.225,0,0,0,9.046.9" transform="translate(129.316 38.336)" fill="none" stroke="#3d3d3d" stroke-linecap="round" stroke-linejoin="round" stroke-width="1"/>
        <path id="Path_24689" data-name="Path 24689" d="M345.694,108.265s3.618,2.261,7.236-1.357" transform="translate(124.35 38.456)" fill="none" stroke="#3d3d3d" stroke-linecap="round" stroke-linejoin="round" stroke-width="1"/>
        <path id="Path_24690" data-name="Path 24690" d="M392.556,111.449c.411-3.9,1.19-10.376,1.333-11.555l-4.5-2.467s1.356,16.735-.453,26.007-4.975,12.213-8.593,13.569-5.428-.451-5.428-.451-8.595-8.142-16.284-8.368c-6.712-.2-11.87,7.185-13.074,9.065,1.429,5.814,2.892,12.183,4.255,14.907a13.989,13.989,0,0,0,12.664,7.915c6.332,0,13.343-5.2,16.735-8.593s9.272-8.141,12.439-14.247.451-21.485.9-25.782" transform="translate(124.301 35.046)" fill="#3d3d3d"/>
        <path id="Path_24691" data-name="Path 24691" d="M392.556,111.449c.411-3.9,1.19-10.376,1.333-11.555l-4.5-2.467s1.356,16.735-.453,26.007-4.975,12.213-8.593,13.569-5.428-.451-5.428-.451-8.595-8.142-16.284-8.368c-6.712-.2-11.87,7.185-13.074,9.065,1.429,5.814,2.892,12.183,4.255,14.907a13.989,13.989,0,0,0,12.664,7.915c6.332,0,13.343-5.2,16.735-8.593s9.272-8.141,12.439-14.247S392.1,115.746,392.556,111.449Z" transform="translate(124.301 35.046)" fill="none" stroke="#3d3d3d" stroke-linecap="round" stroke-linejoin="round" stroke-width="1"/>
        <path id="Path_24692" data-name="Path 24692" d="M367.727,133.311s-4.749-6.785-9.272-7.915-9.273,7.689-7.689,9.272,3.844-4.3,8.141-2.488,6.785,4.749,8.82,1.131" transform="translate(126.063 45.071)" fill="#fff"/>
        <path id="Path_24693" data-name="Path 24693" d="M367.727,133.311s-4.749-6.785-9.272-7.915-9.273,7.689-7.689,9.272,3.844-4.3,8.141-2.488S365.692,136.93,367.727,133.311Z" transform="translate(126.063 45.071)" fill="none" stroke="#3d3d3d" stroke-linecap="round" stroke-linejoin="round" stroke-width="1"/>
        <path id="Path_24694" data-name="Path 24694" d="M347.307,81.464s-6.785-2.035-11.082.226-6.332,7.238-6.332,7.238l8.82.678,4.071,2.035s-1.81,0-2.714,2.487a54.321,54.321,0,0,0-1.584,5.428,24.507,24.507,0,0,1,8.142-2.488c4.975-.678,14.7-3.618,14.7-3.618l1.131,7.463a50.612,50.612,0,0,1,10.176-4.975,17.523,17.523,0,0,0,7.238-4.3s11.759,4.522,11.533,6.558-4.3,7.011-2.94,8.593,4.975,4.975,4.975,4.975l13.569,7.689a62.887,62.887,0,0,0,7.463-19.9c2.488-12.212-8.82-25.329-18.318-28.947s-16.51-2.263-22.389-2.035-14.021-1.584-14.021-1.584l5.428,5.654a68.85,68.85,0,0,1-7.463,2.488c-2.261.453-6.106,1.583-7.011,1.131s-4.071-2.488-4.071-2.488-1.583,6.785.678,7.689" transform="translate(118.666 24.097)" fill="#3d3d3d"/>
        <path id="Path_24695" data-name="Path 24695" d="M347.307,81.464s-6.785-2.035-11.082.226-6.332,7.238-6.332,7.238l8.82.678,4.071,2.035s-1.81,0-2.714,2.487a54.321,54.321,0,0,0-1.584,5.428,24.507,24.507,0,0,1,8.142-2.488c4.975-.678,14.7-3.618,14.7-3.618l1.131,7.463a50.612,50.612,0,0,1,10.176-4.975,17.523,17.523,0,0,0,7.238-4.3s11.759,4.522,11.533,6.558-4.3,7.011-2.94,8.593,4.975,4.975,4.975,4.975l13.569,7.689a62.887,62.887,0,0,0,7.463-19.9c2.488-12.212-8.82-25.329-18.318-28.947s-16.51-2.263-22.389-2.035-14.021-1.584-14.021-1.584l5.428,5.654a68.85,68.85,0,0,1-7.463,2.488c-2.261.453-6.106,1.583-7.011,1.131s-4.071-2.488-4.071-2.488S345.046,80.56,347.307,81.464Z" transform="translate(118.666 24.097)" fill="none" stroke="#3d3d3d" stroke-linecap="round" stroke-linejoin="round" stroke-width="1"/>
        <path id="Path_24696" data-name="Path 24696" d="M388.664,120.343a16.453,16.453,0,0,0,5.2-4.522c1.81-2.714,7.011-13.117.906-16.057-4.626-2.227-7.691,1.77-8.906,3.843-.277,2.355-.6,5.163-.819,7.238-.453,4.3,2.261,19.676-.905,25.781S375.1,147.481,371.7,150.874a37.045,37.045,0,0,1-5.265,4.308l5.716,1.572a42.758,42.758,0,0,0,6.785,11.986,105.584,105.584,0,0,0,9.272,10.4s1.357-8.141,4.977-26.233.9-28.5.9-28.5Z" transform="translate(131.812 35.65)" fill="#fff"/>
        <path id="Path_24697" data-name="Path 24697" d="M388.664,120.343a16.453,16.453,0,0,0,5.2-4.522c1.81-2.714,7.011-13.117.906-16.057-4.626-2.227-7.691,1.77-8.906,3.843-.277,2.355-.6,5.163-.819,7.238-.453,4.3,2.261,19.676-.905,25.781S375.1,147.481,371.7,150.874a37.045,37.045,0,0,1-5.265,4.308l5.716,1.572a42.758,42.758,0,0,0,6.785,11.986,105.584,105.584,0,0,0,9.272,10.4s1.357-8.141,4.977-26.233.9-28.5.9-28.5Z" transform="translate(131.812 35.65)" fill="none" stroke="#3d3d3d" stroke-linecap="round" stroke-linejoin="round" stroke-width="1"/>
        <path id="Path_24698" data-name="Path 24698" d="M370.642,141.5l7.915,2.261-3.844,5.654a57.056,57.056,0,0,1-4.071-7.915" transform="translate(133.324 50.9)" fill="#3d3d3d"/>
        <path id="Path_24699" data-name="Path 24699" d="M370.642,141.5l7.915,2.261-3.844,5.654A57.056,57.056,0,0,1,370.642,141.5Z" transform="translate(133.324 50.9)" fill="none" stroke="#3d3d3d" stroke-linecap="round" stroke-linejoin="round" stroke-width="1"/>
        <path id="Path_24700" data-name="Path 24700" d="M405.757,140.17l6.561,164.006,14.694,1.05s12.6-53.007,16.269-71.113,4.986-29.653,4.724-44.085-3.674-44.347-3.674-44.347-7.609-12.859-14.17-17.32" transform="translate(145.955 46.173)" fill="#0fc1a7"/>
        <path id="Path_24701" data-name="Path 24701" d="M405.757,140.17l6.561,164.006,14.694,1.05s12.6-53.007,16.269-71.113,4.986-29.653,4.724-44.085-3.674-44.347-3.674-44.347-7.609-12.859-14.17-17.32" transform="translate(145.955 46.173)" fill="none" stroke="#3d3d3d" stroke-linecap="round" stroke-linejoin="round" stroke-width="1"/>
        <path id="Path_24702" data-name="Path 24702" d="M427.707,161.466c1.358-4.287,2.167-7.051,2.167-7.051" transform="translate(153.851 55.545)" fill="none" stroke="#3d3d3d" stroke-linecap="round" stroke-linejoin="round" stroke-width="1"/>
        <path id="Path_24703" data-name="Path 24703" d="M408.652,222.618s6.3-14.694,13.645-30.965c4-8.861,7.927-20.058,10.671-28.418" transform="translate(146.997 58.717)" fill="none" stroke="#3d3d3d" stroke-linecap="round" stroke-linejoin="round" stroke-width="1"/>
        <path id="Path_24704" data-name="Path 24704" d="M421.8,190.568a24.924,24.924,0,0,1-1.184,2.8" transform="translate(151.301 68.549)" fill="none" stroke="#3d3d3d" stroke-linecap="round" stroke-linejoin="round" stroke-width="1"/>
        <path id="Path_24705" data-name="Path 24705" d="M428.842,168.5s-3.237,15.416-6.286,25.571" transform="translate(151.998 60.612)" fill="none" stroke="#3d3d3d" stroke-linecap="round" stroke-linejoin="round" stroke-width="1"/>
        <line id="Line_83" data-name="Line 83" x2="17.581" y2="0.787" transform="translate(558.273 335.916)" fill="none" stroke="#3d3d3d" stroke-linecap="round" stroke-linejoin="round" stroke-width="1"/>
        <path id="Path_24706" data-name="Path 24706" d="M411.125,257.664s-2.052,25.318-2.052,27.507,1.751,18.163,2.189,19.475,11.6,9.629,12.693,9.629,7.221.657,8.315-1.095,1.532-2.844,0-3.282a27.428,27.428,0,0,0-5.689-.219l-2.408-1.093s8.973-.876,9.629-1.095,3.939-2.408,4.6-3.939a4.028,4.028,0,0,0-.438-3.282s3.282-3.065,3.5-4.158.438-4.158-1.095-3.72-3.72,2.845-3.72,2.845h-5.47s5.689-3.72,6.346-4.815a18.949,18.949,0,0,0,1.314-7c-.219-1.313-3.063.219-3.72,1.531a49.688,49.688,0,0,0-1.751,4.815l-6.565.876L424.61,287.8s4.377-13.569,4.377-16.413-3.168-12.67-3.168-12.67Z" transform="translate(147.148 92.685)" fill="#fff"/>
        <path id="Path_24707" data-name="Path 24707" d="M411.125,257.664s-2.052,25.318-2.052,27.507,1.751,18.163,2.189,19.475,11.6,9.629,12.693,9.629,7.221.657,8.315-1.095,1.532-2.844,0-3.282a27.428,27.428,0,0,0-5.689-.219l-2.408-1.093s8.973-.876,9.629-1.095,3.939-2.408,4.6-3.939a4.028,4.028,0,0,0-.438-3.282s3.282-3.065,3.5-4.158.438-4.158-1.095-3.72-3.72,2.845-3.72,2.845h-5.47s5.689-3.72,6.346-4.815a18.949,18.949,0,0,0,1.314-7c-.219-1.313-3.063.219-3.72,1.531a49.688,49.688,0,0,0-1.751,4.815l-6.565.876L424.61,287.8s4.377-13.569,4.377-16.413-3.168-12.67-3.168-12.67Z" transform="translate(147.148 92.685)" fill="none" stroke="#3d3d3d" stroke-linecap="round" stroke-linejoin="round" stroke-width="1"/>
        <path id="Path_24708" data-name="Path 24708" d="M416.477,282.078s4.813,4.158,6.127,4.6,5.908-.219,5.908-.219" transform="translate(149.812 101.467)" fill="none" stroke="#3d3d3d" stroke-linecap="round" stroke-linejoin="round" stroke-width="1"/>
        <path id="Path_24709" data-name="Path 24709" d="M414.384,285.619s7.44,6.565,9.411,6.565,12.255-1.969,12.255-1.969" transform="translate(149.059 102.74)" fill="none" stroke="#3d3d3d" stroke-linecap="round" stroke-linejoin="round" stroke-width="1"/>
        <path id="Path_24710" data-name="Path 24710" d="M413.258,289.8s4.377,5.253,5.69,5.689,3.72,1.532,3.72,1.532" transform="translate(148.654 104.245)" fill="none" stroke="#3d3d3d" stroke-linecap="round" stroke-linejoin="round" stroke-width="1"/>
      </g>
    </g>
  </g>
</svg>
