<svg xmlns="http://www.w3.org/2000/svg" width="40" height="40" viewBox="0 0 40 40">
  <g id="ic_doctor" transform="translate(-172 -2828)">
    <path id="Icon_ionic-ios-checkmark-circle" data-name="Icon ionic-ios-checkmark-circle" d="M23.375,3.375a20,20,0,1,0,20,20A20,20,0,0,0,23.375,3.375ZM20.76,30.76Z" transform="translate(168.625 2824.625)" fill="#0fc1a7"/>
    <g id="Group_65" data-name="Group 65" transform="translate(177.106 2833.106)">
      <path id="Path_46" data-name="Path 46" d="M0,0H30.635V30.635H0Z" fill="none"/>
      <path id="Path_47" data-name="Path 47" d="M6.829,4H5.553A2.553,2.553,0,0,0,3,6.553V11.02H3a7.02,7.02,0,1,0,14.041,0V6.553A2.553,2.553,0,0,0,14.488,4H13.212" transform="translate(0.829 1.106)" fill="none" stroke="#fff" stroke-linecap="round" stroke-linejoin="round" stroke-width="1.5"/>
      <path id="Path_48" data-name="Path 48" d="M8,15.829a7.659,7.659,0,0,0,15.317,0V12" transform="translate(2.212 3.317)" fill="none" stroke="#fff" stroke-linecap="round" stroke-linejoin="round" stroke-width="1.5"/>
      <path id="Path_49" data-name="Path 49" d="M11,3V5.553" transform="translate(3.041 0.829)" fill="none" stroke="#fff" stroke-linecap="round" stroke-linejoin="round" stroke-width="1.5"/>
      <path id="Path_50" data-name="Path 50" d="M6,3V5.553" transform="translate(1.659 0.829)" fill="none" stroke="#fff" stroke-linecap="round" stroke-linejoin="round" stroke-width="1.5"/>
      <circle id="Ellipse_96" data-name="Ellipse 96" cx="2.5" cy="2.5" r="2.5" transform="translate(22.894 9.894)" fill="none" stroke="#fff" stroke-linecap="round" stroke-linejoin="round" stroke-width="1.5"/>
    </g>
  </g>
</svg>
