<svg xmlns="http://www.w3.org/2000/svg" xmlns:xlink="http://www.w3.org/1999/xlink" width="22" height="22" viewBox="0 0 22 22">
  <defs>
    <clipPath id="clip-path">
      <path id="Path_5279" data-name="Path 5279" d="M139.21,139.21h22v22h-22Z" transform="translate(-139.21 -139.21)" fill="#b6c8c1"/>
    </clipPath>
  </defs>
  <g id="eye-off" transform="translate(-139.21 -139.21)">
    <path id="Path_5276" data-name="Path 5276" d="M35.262,91.712A9.231,9.231,0,0,1,29.817,93.6c-6.417,0-10.084-7.334-10.084-7.334h0a16.913,16.913,0,0,1,4.638-5.445m3.52-1.668a8.373,8.373,0,0,1,1.925-.22c6.417,0,10.084,7.334,10.084,7.334a16.952,16.952,0,0,1-1.98,2.924m-6.16-.981a2.75,2.75,0,1,1-3.887-3.887" transform="translate(120.394 63.944)" fill="none" stroke="#b6c8c1" stroke-linecap="round" stroke-linejoin="round" stroke-width="1.7"/>
    <path id="Path_5277" data-name="Path 5277" d="M139.21,198h22v16.538h-22Z" transform="translate(0 -56.059)" fill="none"/>
    <g id="Group_20120" data-name="Group 20120" transform="translate(139.21 139.21)" clip-path="url(#clip-path)">
      <path id="Path_5278" data-name="Path 5278" d="M21.086,22a.914.914,0,0,1-.648-.268L.27,1.567a.917.917,0,0,1,1.3-1.3L21.734,20.438A.917.917,0,0,1,21.086,22Z" transform="translate(-0.002 -0.002)" fill="#b6c8c1"/>
    </g>
  </g>
</svg>
