<svg id="Component_15_2" data-name="Component 15 – 2" xmlns="http://www.w3.org/2000/svg" width="24" height="24" viewBox="0 0 24 24">
  <rect id="Rectangle_8459" data-name="Rectangle 8459" width="15.6" height="12" rx="2" transform="translate(4 8)" fill="#0fc1a7"/>
  <rect id="Rectangle_8460" data-name="Rectangle 8460" width="6" height="4" rx="1" transform="translate(14 12)" fill="#fff"/>
  <path id="Path_24521" data-name="Path 24521" d="M0,0H24V24H0Z" fill="none"/>
  <path id="Path_24522" data-name="Path 24522" d="M17,8V5a1,1,0,0,0-1-1H6A2,2,0,0,0,6,8H18a1,1,0,0,1,1,1v3m0,4v3a1,1,0,0,1-1,1H6a2,2,0,0,1-2-2V6" fill="rgba(0,0,0,0)" stroke="#0fc1a7" stroke-linecap="round" stroke-linejoin="round" stroke-width="1.5"/>
  <path id="Path_24523" data-name="Path 24523" d="M20,12v4H16a2,2,0,0,1,0-4h4" fill="none" stroke="#0fc1a7" stroke-linecap="round" stroke-linejoin="round" stroke-width="1.5"/>
</svg>
