<?xml version="1.0" encoding="utf-8"?>
<!-- Generator: Adobe Illustrator 21.0.0, SVG Export Plug-In . SVG Version: 6.00 Build 0)  -->
<svg version="1.1" id="Layer_1" xmlns="http://www.w3.org/2000/svg" xmlns:xlink="http://www.w3.org/1999/xlink" x="0px" y="0px"
	 viewBox="0 0 25.4 15.8" style="enable-background:new 0 0 25.4 15.8;" xml:space="preserve">
<style type="text/css">
	.st0{fill:#0D5551;}
</style>
<title>vissible</title>
<g id="Layer_2">
	<g id="Layer_1-2">
		<path class="st0" d="M24.5,7.4C24.4,7.1,19,0,12.4,0S0.3,7.1,0.2,7.4C0,7.7,0,8.1,0.2,8.4c0.2,0.3,5.5,7.4,12.2,7.4
			s12-7.1,12.2-7.4c0.5,0,0.8,0,0.8-0.5S25,7.1,24.5,7.4z M12.2,14.1c-5,0-9.3-4.7-10.5-6.3C3,6.3,7.3,1.5,12.3,1.5
			s9.3,4.7,10.5,6.3C21.5,9.4,17.3,14.1,12.2,14.1z"/>
		<path class="st0" d="M12.3,2.9c-2.7,0-4.9,2.2-4.9,4.9s2.2,4.9,4.9,4.9s4.9-2.2,4.9-4.9l0,0C17.1,5.1,15,3,12.3,2.9z M12.3,11.1
			C10.5,11.1,9,9.6,9,7.8c0-1.8,1.5-3.3,3.3-3.3s3.3,1.5,3.3,3.3C15.6,9.6,14.2,11.1,12.3,11.1C12.3,11.1,12.3,11.1,12.3,11.1z"/>
	</g>
</g>
</svg>
